<svg version="1.1" id="Layer_1" xmlns="http://www.w3.org/2000/svg" xmlns:xlink="http://www.w3.org/1999/xlink" x="0px" y="0px"
	 width="100%" viewBox="0 0 992 432" enable-background="new 0 0 992 432" xml:space="preserve">
<path fill="#000000" opacity="1.000000" stroke="none" 
	d="
M352.912109,389.124390 
	C356.354797,367.597931 354.076233,346.861206 348.577515,326.453247 
	C340.236847,295.497833 324.397705,268.912842 301.214844,246.684464 
	C298.007233,243.608887 295.207062,243.054977 291.016113,244.631226 
	C250.350571,259.925812 209.664978,275.178040 168.120132,287.982941 
	C157.614380,291.220978 147.063217,294.236542 135.925171,294.303558 
	C132.223892,294.325836 128.598953,293.718292 125.084450,292.766907 
	C110.504997,288.820190 103.296631,276.012054 107.240143,260.998871 
	C111.640709,244.245667 122.527382,231.921753 135.598938,221.494888 
	C154.445389,206.461533 176.228821,199.256897 200.315674,198.619705 
	C236.152878,197.671646 267.612640,209.456284 295.724701,231.066208 
	C297.940613,232.769608 299.655090,233.313354 302.423401,232.274368 
	C339.212280,218.467148 376.145660,205.063293 413.795410,193.745377 
	C416.578674,192.908691 418.304108,191.389801 419.552887,188.768921 
	C437.631439,150.826569 459.645447,115.411194 487.373718,83.694916 
	C490.762299,79.818962 494.286560,76.061615 497.586365,72.035202 
	C485.101929,79.250557 473.282471,87.467255 461.501068,95.713768 
	C424.160645,121.850517 388.703400,150.246002 357.356079,183.500656 
	C353.814270,187.257980 350.443542,191.176712 346.897827,194.930222 
	C345.860077,196.028793 344.686920,198.144257 342.874329,196.462097 
	C341.140930,194.853455 342.995758,193.398911 343.980438,192.210419 
	C357.181091,176.277481 371.367462,161.268997 386.563568,147.226868 
	C428.637238,108.348083 476.388550,77.246956 524.507812,46.657322 
	C525.747925,45.868923 527.154114,45.243118 528.569092,44.858643 
	C529.762268,44.534416 530.816956,45.179611 531.519409,46.272079 
	C532.254517,47.415314 532.153198,48.525246 531.278687,49.479103 
	C530.155334,50.704262 528.984375,51.900196 527.729370,52.988056 
	C485.078369,89.959091 453.847076,135.386581 429.358521,185.805862 
	C428.944733,186.657776 428.250183,187.516876 429.008270,189.088654 
	C437.551453,186.947327 446.206604,184.788849 454.856079,182.607849 
	C478.089600,176.749481 501.588806,172.220596 525.327454,169.042175 
	C531.876831,168.165268 538.608826,167.616440 545.148499,169.698471 
	C554.008301,172.519135 557.951172,179.955826 555.477051,188.867035 
	C553.858704,194.695740 550.316589,199.273773 546.261902,203.505707 
	C532.071533,218.316528 516.966919,232.150284 500.114502,246.078293 
	C504.207581,245.557739 506.696136,244.306320 509.128174,242.888092 
	C525.140320,233.550598 539.561829,221.889999 554.881348,211.540054 
	C559.573486,208.369980 564.150513,205.029800 568.804626,201.802612 
	C571.181580,200.154388 573.774780,198.268814 576.255432,201.336304 
	C578.531250,204.150620 576.983826,206.638611 574.793091,208.783112 
	C564.743347,218.620728 556.044556,229.539810 548.539246,241.426605 
	C541.395325,252.740997 535.557434,264.696075 531.130981,277.312042 
	C530.263611,279.784119 527.867004,282.727997 530.607910,285.147705 
	C533.483154,287.685944 536.789551,285.813293 539.457275,284.326019 
	C551.545776,277.586334 563.051392,269.901428 574.335571,261.905029 
	C587.527649,252.556595 600.303223,242.659012 612.474731,232.001404 
	C614.749573,230.009491 617.346802,228.344635 619.996521,230.695358 
	C622.756592,233.143890 621.087524,235.847763 619.287598,238.205887 
	C618.383667,239.390167 617.399353,240.513062 615.655090,242.630356 
	C627.515869,237.001160 638.328369,231.840836 649.165222,226.732101 
	C672.834961,215.573593 697.160889,205.978943 721.544495,196.533218 
	C726.945618,194.440933 732.447632,192.153671 738.456116,193.304794 
	C746.443848,194.835098 749.640442,201.133667 746.453796,208.687485 
	C744.473206,213.382553 740.995422,217.031708 737.856934,220.902298 
	C729.350159,231.393600 720.225098,241.330475 710.690796,250.894897 
	C709.782715,251.805847 708.976929,252.818802 707.215759,254.811844 
	C717.178955,251.092514 725.845154,247.852615 734.516357,244.626282 
	C735.607422,244.220337 736.737000,243.917877 737.827820,243.511307 
	C739.853638,242.756195 741.752258,242.656784 743.283569,244.498291 
	C744.864624,246.399673 744.132690,248.149979 743.004333,249.980484 
	C741.733948,252.041519 740.061584,253.954697 739.852234,257.257904 
	C745.165222,254.782730 750.170715,252.648026 754.985168,250.145935 
	C758.875183,248.124252 761.849426,248.153473 765.186279,251.572830 
	C770.861877,257.388763 777.935974,259.869446 786.138672,258.068756 
	C789.020020,257.436218 791.304382,258.217560 791.927979,261.202606 
	C792.549316,264.176605 790.238464,265.467804 787.840698,265.858734 
	C778.775391,267.336670 770.092285,266.172913 762.819336,260.218109 
	C759.665405,257.635773 757.279053,257.771149 753.977234,259.541534 
	C748.257507,262.608337 742.320496,265.271698 736.456360,268.066040 
	C734.501160,268.997772 732.427979,270.115662 730.358398,268.531708 
	C728.164062,266.852325 728.527161,264.357880 728.913086,262.067139 
	C729.292969,259.812012 730.005798,257.612976 730.584900,255.340973 
	C728.381531,254.323364 726.781189,255.499283 725.161926,256.103912 
	C704.629700,263.770630 684.914795,272.949402 667.850281,287.058685 
	C665.807800,288.747406 663.490784,290.121246 661.224182,291.516205 
	C659.528992,292.559448 657.711975,292.749969 656.233093,291.101044 
	C654.751282,289.448761 654.308777,287.442078 655.666809,285.605011 
	C657.239685,283.477264 659.031250,281.480347 660.921326,279.623474 
	C668.664185,272.016724 677.069641,265.434448 686.649597,260.056305 
	C692.458130,256.795380 697.063904,251.297195 701.985779,246.570541 
	C713.893982,235.134689 725.274231,223.191528 735.292175,210.037018 
	C736.867249,207.968887 740.101074,205.733566 737.886475,202.724365 
	C735.804688,199.895523 732.398376,201.629486 729.972717,202.554138 
	C715.194702,208.187668 700.487000,214.013565 685.845154,219.993912 
	C676.299988,223.892578 666.906128,228.161392 656.736938,232.571213 
	C661.379578,237.001251 658.732483,240.020081 655.652771,243.280472 
	C637.448669,262.552643 615.866211,276.536682 590.775818,285.088745 
	C587.311157,286.269653 583.787048,287.274414 580.078003,287.369720 
	C572.413879,287.566620 569.563416,284.931549 569.069519,276.310944 
	C563.772522,279.692047 558.825989,282.846466 553.882507,286.005676 
	C547.981567,289.776794 542.091125,293.515594 534.984131,294.735016 
	C525.835815,296.304718 519.067932,289.530365 521.252808,280.475189 
	C524.203613,268.245758 529.569824,256.958588 535.727356,246.054214 
	C538.917114,240.405609 542.363708,234.902054 546.353821,228.229904 
	C537.745422,234.244537 530.093018,239.594025 522.437683,244.939240 
	C512.976501,251.545349 503.052307,256.753113 490.942596,255.355652 
	C488.749725,255.102600 487.126190,256.313110 485.527893,257.530426 
	C453.730103,281.749115 419.715240,302.296600 383.435425,319.071106 
	C380.890472,320.247803 379.787109,321.968323 379.047272,324.596954 
	C371.930664,349.882568 365.783569,375.415253 359.400696,400.888062 
	C359.118347,402.014771 358.786774,403.130005 358.450165,404.242065 
	C357.681305,406.782257 355.859619,407.672852 353.424469,407.075134 
	C351.006470,406.481628 350.481445,404.481903 350.776978,402.353943 
	C351.370819,398.078186 352.140564,393.826813 352.912109,389.124390 
M273.492065,226.056091 
	C255.911407,215.715546 237.095810,209.195999 216.722000,207.090759 
	C188.503525,204.174911 162.765823,210.330368 140.376678,228.048065 
	C128.763611,237.238113 118.965149,248.127533 115.044907,263.015381 
	C111.959076,274.734375 118.201408,283.687805 130.213577,285.787201 
	C139.558807,287.420532 148.453476,285.496887 157.217667,282.948883 
	C196.856140,271.424866 235.553009,257.132812 274.198914,242.708969 
	C278.941467,240.938904 283.922089,239.662888 288.730438,236.619446 
	C284.042023,232.402893 279.021118,229.491974 273.492065,226.056091 
M364.847137,287.459595 
	C367.991577,281.937866 371.134003,276.105865 376.116547,272.293884 
	C389.648590,261.941010 396.206909,247.641266 400.901093,231.994354 
	C401.996399,228.343475 403.707214,224.875473 405.163635,221.335205 
	C407.603516,215.404221 410.066589,209.482773 412.966797,202.477905 
	C376.281372,213.449051 341.402893,225.945068 305.814545,239.329544 
	C338.954071,271.292267 357.317108,309.376526 362.842804,353.907074 
	C365.461517,344.020874 368.080261,334.134674 370.738861,324.097870 
	C369.487701,323.715546 368.884155,323.471863 368.256989,323.348450 
	C360.189728,321.760712 357.462097,318.557892 357.688568,310.336029 
	C357.908966,302.336151 360.922180,295.120850 364.847137,287.459595 
M405.753448,241.047775 
	C405.031525,243.191666 404.309601,245.335541 403.243805,248.500687 
	C405.815552,246.872528 407.470001,245.839935 409.109863,244.784653 
	C427.596252,232.888351 447.322296,223.819473 468.880219,219.155594 
	C480.078003,216.733047 488.571808,221.974609 492.061188,232.902740 
	C492.700684,234.905487 493.233459,236.942307 493.910004,239.291473 
	C494.957062,238.618607 495.677429,238.246811 496.293427,237.746521 
	C512.213196,224.817673 527.201477,210.878967 541.343628,196.032227 
	C543.529846,193.737122 545.407410,191.172012 546.583130,188.180496 
	C548.766235,182.625610 546.728638,178.990784 540.998474,177.231827 
	C535.948914,175.681778 531.007202,176.909378 526.155151,177.540344 
	C492.490234,181.918167 459.385162,189.056915 426.724701,198.307129 
	C423.871582,199.115189 422.211578,200.673981 421.126740,203.371277 
	C416.160126,215.719788 411.074554,228.020432 405.753448,241.047775 
M445.226135,235.771759 
	C431.639923,241.391876 419.040985,248.767212 406.797791,256.871002 
	C400.728821,260.888062 396.344299,265.582153 394.457153,272.899719 
	C392.011688,282.382080 388.669250,291.630524 385.854645,301.022156 
	C385.219971,303.139893 383.775085,305.229004 384.696136,307.601898 
	C385.896942,308.007812 386.775116,307.483032 387.668304,307.058990 
	C421.165894,291.155884 452.524658,271.765686 481.916779,249.180756 
	C482.936829,248.396942 484.244537,247.332001 484.431885,246.230347 
	C485.380981,240.649338 484.865204,235.182632 481.036438,230.683807 
	C477.700562,226.764160 473.263031,226.786041 468.640320,227.950409 
	C460.884308,229.904022 453.387238,232.623566 445.226135,235.771759 
M602.555969,267.856262 
	C618.000183,259.112274 632.921936,249.610031 646.333984,237.878860 
	C634.063354,243.497238 622.183899,249.837662 609.937439,255.365204 
	C603.343567,258.341400 600.516907,263.674255 597.657043,269.612579 
	C599.617493,270.065948 600.668091,268.774139 602.555969,267.856262 
M383.004120,282.785248 
	C383.495941,281.038513 383.987793,279.291748 384.479614,277.545013 
	C375.545593,286.143860 369.135529,295.838776 367.000702,307.951294 
	C366.536774,310.583405 365.773285,313.373291 368.920044,314.216461 
	C372.086639,315.064880 373.978180,313.148865 374.900421,309.818481 
	C377.342560,300.999512 380.114014,292.271698 383.004120,282.785248 
M585.930481,272.810120 
	C586.353271,271.682343 587.304749,270.689850 586.966125,269.000122 
	C583.202332,271.344971 580.325500,273.966827 579.127869,278.267548 
	C583.721069,279.406189 584.177124,275.769440 585.930481,272.810120 
z"/>
<path fill="#000000" opacity="1.000000" stroke="none" 
	d="
M894.024292,211.410004 
	C874.455322,219.464081 855.452393,227.868469 837.554138,238.573441 
	C836.985229,238.913681 836.383240,239.204758 835.777771,239.476639 
	C834.052490,240.251373 832.397644,240.114014 831.386902,238.435989 
	C830.114441,236.323608 831.972412,235.442291 833.346497,234.605453 
	C843.014954,228.717133 852.950195,223.320618 863.218872,218.544235 
	C871.966736,214.475250 880.719238,210.421310 889.866394,207.297897 
	C891.524475,206.731766 893.133911,206.483246 894.523987,207.841995 
	C895.713806,209.004990 895.614319,210.167587 894.024292,211.410004 
z"/>
</svg>